<svg width="400" height="400" xmlns="http://www.w3.org/2000/svg">
 <g>
  <title>background</title>
  <rect fill="none" id="canvas_background" height="402" width="402" y="-1" x="-1"/>
 </g>

 <g>
  <title>Layer 1</title>
  <ellipse ry="141" rx="141" id="svg_8" cy="197" cx="203.5" stroke-opacity="null" stroke-width="null" stroke="null" fill="#2a394b"/>
  <path stroke="null" id="svg_3" d="m212.21954,303.40371l-94.08154,-54.3196l4.87408,-8.44215l94.08154,54.3196l-4.87408,8.44215zm81.72839,-141.57096l-94.08154,-54.3196l4.87408,-8.44215l94.08154,54.3196l-4.87408,8.44215z" fill="#3fb082"/>
  <path stroke="null" id="svg_4" d="m116.64009,155.41265l-4.45809,-7.72109l86.05192,-49.68356l4.45809,7.72163l-86.05192,49.68302z" fill="#3fb082"/>
  <path stroke="null" id="svg_6" d="m202.14803,297.5451l-4.87603,-8.44596l93.71397,-54.10714l4.87603,8.44529l-93.71397,54.10781z" fill="#3fb082"/>
  <path stroke="null" id="svg_7" d="m298.53504,251.33682c-5.49579,9.56038 -17.74682,12.82351 -27.30721,7.32772c-9.56038,-5.49579 -12.82351,-17.74682 -7.32772,-27.30721c5.49579,-9.56038 17.74682,-12.82351 27.30721,-7.32772c9.61763,5.55304 12.88076,17.74682 7.32772,27.30721m-159.4924,-92.11173c-5.49579,9.56038 -17.74682,12.82351 -27.30721,7.32772c-9.56038,-5.49579 -12.82351,-17.74682 -7.32772,-27.30721c5.49579,-9.56038 17.74682,-12.82351 27.30721,-7.32772c9.56038,5.55304 12.82351,17.74682 7.32772,27.30721m-34.57768,92.11173c-5.49579,-9.56038 -2.23266,-21.75417 7.32772,-27.30721c9.56038,-5.49579 21.75417,-2.23266 27.30721,7.32772c5.49579,9.56038 2.23266,21.75417 -7.32772,27.30721c-9.61763,5.49579 -21.81142,2.23266 -27.30721,-7.32772m159.4924,-92.11173c-5.49579,-9.56038 -2.23266,-21.75417 7.32772,-27.30721c9.56038,-5.49579 21.75417,-2.23266 27.30721,7.32772c5.49579,9.56038 2.23266,21.75417 -7.32772,27.30721c-9.56038,5.49579 -21.81142,2.23266 -27.30721,-7.32772m-62.45736,148.15733c-11.04883,0 -19.97949,-8.93066 -19.97949,-19.97949c0,-11.04883 8.93066,-19.97949 19.97949,-19.97949c11.04883,0 19.97949,8.93066 19.97949,19.97949c0,10.99158 -8.93066,19.97949 -19.97949,19.97949m0,-184.22345c-11.04883,0 -19.97949,-8.93066 -19.97949,-19.97949c0,-11.04883 8.93066,-19.97949 19.97949,-19.97949c11.04883,0 19.97949,8.93066 19.97949,19.97949c0,11.04883 -8.93066,19.97949 -19.97949,19.97949" fill="#3fb082"/>
  <path stroke="null" id="svg_1" d="m235.14803,235.5451l-4.87603,-8.44596l93.71397,-54.10714l4.87603,8.44529l-93.71397,54.10781z" fill="#3fb082" transform="rotate(-61.466346740722656 279.56701660156244,204.2685546875) "/>
  <path stroke="null" id="svg_2" d="m80.14803,231.5451l-4.87603,-8.44596l93.71397,-54.10714l4.87603,8.44529l-93.71397,54.10781z" fill="#3fb082" transform="rotate(-61.466346740722656 124.56701660156247,200.2685546875) "/>
 </g>
 <g>
  <title>Layer 2</title>
  <g stroke="null" id="svg_9">
   <path stroke="null" d="m218.5625,158.6875l-28.4375,28.4375l-17.0625,0l-17.0625,22.75c0,0 18.07772,-5.03344 28.62234,-2.67313l-28.62234,36.79813l37.492,-29.16265c5.22966,11.9665 -3.367,29.16265 -3.367,29.16265l22.75,-17.0625l0,-17.0625l28.4375,-28.4375l5.6875,-28.4375l-28.4375,5.6875z" id="svg_10" fill="#3fb082"/>
  </g>
 </g>
</svg>
